<svg width="114" height="52" viewBox="0 0 114 52" fill="none" xmlns="http://www.w3.org/2000/svg">
<path d="M7.55146 12.5441L7.55146 35L2.08143 35L2.08143 12.5441L7.55146 12.5441ZM31.6043 35L26.1343 35L16.9856 21.149L16.9856 35L11.5155 35L11.5155 12.5441L16.9856 12.5441L26.1343 26.4591L26.1343 12.5441L31.6043 12.5441L31.6043 35ZM51.7235 12.5441L51.7235 16.9265L45.7737 16.9265L45.7737 35L40.3037 35L40.3037 16.9265L34.3538 16.9265L34.3538 12.5441L51.7235 12.5441ZM59.9388 16.9265L59.9388 21.4689L67.2642 21.4689V25.6914L59.9388 25.6914L59.9388 30.6176L68.2238 30.6176V35L54.4688 35L54.4688 12.5441L68.2238 12.5441V16.9265L59.9388 16.9265ZM91.8638 35L86.3938 35L77.2451 21.149L77.2451 35L71.7751 35L71.7751 12.5441L77.2451 12.5441L86.3938 26.4591L86.3938 12.5441L91.8638 12.5441L91.8638 35ZM111.983 12.5441V16.9265L106.033 16.9265L106.033 35L100.563 35L100.563 16.9265L94.6133 16.9265V12.5441L111.983 12.5441Z" fill="white"/>
<path d="M1.59188 44.305C1.73414 44.0264 1.93568 43.8101 2.19649 43.6559C2.46323 43.5018 2.78628 43.4248 3.16564 43.4248L3.16564 44.2606H2.95225C2.04534 44.2606 1.59188 44.7525 1.59188 45.7365L1.59188 48.3861H0.782773L0.782773 43.5137H1.59188L1.59188 44.305ZM8.54528 45.7632C8.54528 45.9173 8.53639 46.0803 8.51861 46.2522L4.62422 46.2522C4.65386 46.7323 4.81687 47.1087 5.11325 47.3814C5.41555 47.6481 5.78009 47.7815 6.20687 47.7815C6.5566 47.7815 6.84705 47.7015 7.07822 47.5414C7.31532 47.3755 7.48129 47.1561 7.57613 46.8835H8.44748C8.31707 47.3518 8.05626 47.7341 7.66504 48.0305C7.27383 48.3209 6.78777 48.4661 6.20687 48.4661C5.74453 48.4661 5.3296 48.3624 4.96209 48.1549C4.60051 47.9475 4.31599 47.6541 4.10853 47.2747C3.90107 46.8894 3.79734 46.4448 3.79734 45.941C3.79734 45.4372 3.8981 44.9956 4.09964 44.6162C4.30117 44.2368 4.58273 43.9464 4.94431 43.7449C5.31182 43.5374 5.73267 43.4337 6.20687 43.4337C6.66922 43.4337 7.07822 43.5344 7.43387 43.736C7.78952 43.9375 8.06219 44.2161 8.25187 44.5717C8.44748 44.9215 8.54528 45.3186 8.54528 45.7632ZM7.7095 45.5942C7.7095 45.286 7.64133 45.0222 7.505 44.8029C7.36867 44.5777 7.18195 44.4087 6.94485 44.2961C6.71368 44.1776 6.45583 44.1183 6.17131 44.1183C5.76231 44.1183 5.41259 44.2487 5.12214 44.5095C4.83762 44.7703 4.67461 45.1319 4.63312 45.5942L7.7095 45.5942ZM15.4726 43.4248C15.852 43.4248 16.1899 43.5048 16.4862 43.6648C16.7826 43.819 17.0168 44.0531 17.1887 44.3672C17.3605 44.6814 17.4465 45.0637 17.4465 45.5142L17.4465 48.3861H16.6463L16.6463 45.6298C16.6463 45.1438 16.5248 44.7733 16.2817 44.5184C16.0446 44.2576 15.7216 44.1272 15.3126 44.1272C14.8917 44.1272 14.5568 44.2635 14.3079 44.5362C14.0589 44.8029 13.9344 45.1912 13.9344 45.7009L13.9344 48.3861H13.1342L13.1342 45.6298C13.1342 45.1438 13.0127 44.7733 12.7697 44.5184C12.5326 44.2576 12.2095 44.1272 11.8005 44.1272C11.3797 44.1272 11.0448 44.2635 10.7958 44.5362C10.5469 44.8029 10.4224 45.1912 10.4224 45.7009L10.4224 48.3861H9.61328L9.61328 43.5137H10.4224L10.4224 44.2161C10.5824 43.9612 10.7958 43.7656 11.0626 43.6293C11.3352 43.4929 11.6346 43.4248 11.9606 43.4248C12.3696 43.4248 12.7312 43.5166 13.0453 43.7004C13.3595 43.8842 13.5936 44.1539 13.7477 44.5095C13.8841 44.1657 14.1093 43.899 14.4235 43.7093C14.7376 43.5196 15.0873 43.4248 15.4726 43.4248ZM18.4714 45.9321C18.4714 45.4342 18.5722 44.9985 18.7737 44.6251C18.9753 44.2457 19.2509 43.9523 19.6006 43.7449C19.9563 43.5374 20.3505 43.4337 20.7832 43.4337C21.2099 43.4337 21.5804 43.5255 21.8946 43.7093C22.2087 43.893 22.4429 44.1242 22.597 44.4028L22.597 43.5137L23.415 43.5137L23.415 48.3861H22.597L22.597 47.4792C22.4369 47.7637 22.1969 48.0008 21.8768 48.1905C21.5626 48.3743 21.1951 48.4661 20.7743 48.4661C20.3416 48.4661 19.9503 48.3594 19.6006 48.146C19.2509 47.9327 18.9753 47.6333 18.7737 47.248C18.5722 46.8627 18.4714 46.4241 18.4714 45.9321ZM22.597 45.941C22.597 45.5735 22.5229 45.2534 22.3747 44.9807C22.2265 44.7081 22.025 44.5006 21.7701 44.3584C21.5211 44.2102 21.2455 44.1361 20.9432 44.1361C20.6409 44.1361 20.3653 44.2072 20.1163 44.3495C19.8674 44.4917 19.6688 44.6992 19.5206 44.9719C19.3724 45.2445 19.2983 45.5646 19.2983 45.9321C19.2983 46.3055 19.3724 46.6316 19.5206 46.9102C19.6688 47.1828 19.8674 47.3932 20.1163 47.5414C20.3653 47.6837 20.6409 47.7548 20.9432 47.7548C21.2455 47.7548 21.5211 47.6837 21.7701 47.5414C22.025 47.3932 22.2265 47.1828 22.3747 46.9102C22.5229 46.6316 22.597 46.3085 22.597 45.941ZM25.5914 44.305C25.7337 44.0264 25.9352 43.8101 26.196 43.6559C26.4627 43.5018 26.7858 43.4248 27.1652 43.4248L27.1652 44.2606H26.9518C26.0449 44.2606 25.5914 44.7525 25.5914 45.7365L25.5914 48.3861H24.7823L24.7823 43.5137H25.5914L25.5914 44.305ZM30.8199 48.3861L28.9083 46.2344L28.9083 48.3861H28.0992L28.0992 41.8066H28.9083L28.9083 45.6743L30.7843 43.5137L31.9135 43.5137L29.6196 45.941L31.9224 48.3861H30.8199ZM32.3727 45.9321C32.3727 45.4342 32.4735 44.9985 32.675 44.6251C32.8766 44.2457 33.1522 43.9523 33.5019 43.7449C33.8576 43.5374 34.2518 43.4337 34.6845 43.4337C35.1113 43.4337 35.4817 43.5255 35.7959 43.7093C36.11 43.893 36.3442 44.1242 36.4983 44.4028V43.5137H37.3163L37.3163 48.3861H36.4983V47.4792C36.3383 47.7637 36.0982 48.0008 35.7781 48.1905C35.4639 48.3743 35.0964 48.4661 34.6756 48.4661C34.2429 48.4661 33.8517 48.3594 33.5019 48.146C33.1522 47.9327 32.8766 47.6333 32.675 47.248C32.4735 46.8627 32.3727 46.4241 32.3727 45.9321ZM36.4983 45.941C36.4983 45.5735 36.4242 45.2534 36.276 44.9807C36.1278 44.7081 35.9263 44.5006 35.6714 44.3584C35.4225 44.2102 35.1468 44.1361 34.8445 44.1361C34.5422 44.1361 34.2666 44.2072 34.0176 44.3495C33.7687 44.4917 33.5701 44.6992 33.4219 44.9719C33.2737 45.2445 33.1996 45.5646 33.1996 45.9321C33.1996 46.3055 33.2737 46.6316 33.4219 46.9102C33.5701 47.1828 33.7687 47.3932 34.0176 47.5414C34.2666 47.6837 34.5422 47.7548 34.8445 47.7548C35.1468 47.7548 35.4225 47.6837 35.6714 47.5414C35.9263 47.3932 36.1278 47.1828 36.276 46.9102C36.4242 46.6316 36.4983 46.3085 36.4983 45.941ZM39.4927 44.4206C39.6587 44.1301 39.9017 43.893 40.2218 43.7093C40.5419 43.5255 40.9064 43.4337 41.3154 43.4337C41.7541 43.4337 42.1482 43.5374 42.498 43.7449C42.8477 43.9523 43.1233 44.2457 43.3249 44.6251C43.5264 44.9985 43.6272 45.4342 43.6272 45.9321C43.6272 46.4241 43.5264 46.8627 43.3249 47.248C43.1233 47.6333 42.8447 47.9327 42.4891 48.146C42.1394 48.3594 41.7481 48.4661 41.3154 48.4661C40.8946 48.4661 40.5241 48.3743 40.204 48.1905C39.8899 48.0067 39.6528 47.7726 39.4927 47.4881V48.3861L38.6836 48.3861L38.6836 41.8066L39.4927 41.8066V44.4206ZM42.8003 45.9321C42.8003 45.5646 42.7262 45.2445 42.578 44.9719C42.4298 44.6992 42.2283 44.4917 41.9734 44.3495C41.7244 44.2072 41.4488 44.1361 41.1465 44.1361C40.8501 44.1361 40.5745 44.2102 40.3196 44.3584C40.0706 44.5006 39.8691 44.711 39.715 44.9896C39.5668 45.2623 39.4927 45.5794 39.4927 45.941C39.4927 46.3085 39.5668 46.6316 39.715 46.9102C39.8691 47.1828 40.0706 47.3932 40.3196 47.5414C40.5745 47.6837 40.8501 47.7548 41.1465 47.7548C41.4488 47.7548 41.7244 47.6837 41.9734 47.5414C42.2283 47.3932 42.4298 47.1828 42.578 46.9102C42.7262 46.6316 42.8003 46.3055 42.8003 45.9321ZM45.5013 41.8066L45.5013 48.3861H44.6922L44.6922 41.8066H45.5013ZM51.3259 45.7632C51.3259 45.9173 51.317 46.0803 51.2992 46.2522L47.4048 46.2522C47.4345 46.7323 47.5975 47.1087 47.8939 47.3814C48.1962 47.6481 48.5607 47.7815 48.9875 47.7815C49.3372 47.7815 49.6277 47.7015 49.8588 47.5414C50.0959 47.3755 50.2619 47.1561 50.3568 46.8835H51.2281C51.0977 47.3518 50.8369 47.7341 50.4457 48.0305C50.0545 48.3209 49.5684 48.4661 48.9875 48.4661C48.5251 48.4661 48.1102 48.3624 47.7427 48.1549C47.3811 47.9475 47.0966 47.6541 46.8892 47.2747C46.6817 46.8894 46.578 46.4448 46.578 45.941C46.578 45.4372 46.6787 44.9956 46.8803 44.6162C47.0818 44.2368 47.3634 43.9464 47.7249 43.7449C48.0924 43.5374 48.5133 43.4337 48.9875 43.4337C49.4498 43.4337 49.8588 43.5344 50.2145 43.736C50.5701 43.9375 50.8428 44.2161 51.0325 44.5717C51.2281 44.9215 51.3259 45.3186 51.3259 45.7632ZM50.4901 45.5942C50.4901 45.286 50.422 45.0222 50.2856 44.8029C50.1493 44.5777 49.9626 44.4087 49.7255 44.2961C49.4943 44.1776 49.2365 44.1183 48.9519 44.1183C48.5429 44.1183 48.1932 44.2487 47.9028 44.5095C47.6182 44.7703 47.4552 45.1319 47.4137 45.5942L50.4901 45.5942ZM54.462 45.9321C54.462 45.4342 54.5628 44.9985 54.7643 44.6251C54.9659 44.2457 55.2415 43.9523 55.5912 43.7449C55.9469 43.5374 56.3411 43.4337 56.7738 43.4337C57.2005 43.4337 57.571 43.5255 57.8852 43.7093C58.1993 43.893 58.4335 44.1242 58.5876 44.4028V43.5137H59.4056L59.4056 48.3861H58.5876V47.4792C58.4275 47.7637 58.1875 48.0008 57.8674 48.1905C57.5532 48.3743 57.1857 48.4661 56.7649 48.4661C56.3322 48.4661 55.9409 48.3594 55.5912 48.146C55.2415 47.9327 54.9659 47.6333 54.7643 47.248C54.5628 46.8627 54.462 46.4241 54.462 45.9321ZM58.5876 45.941C58.5876 45.5735 58.5135 45.2534 58.3653 44.9807C58.2171 44.7081 58.0156 44.5006 57.7607 44.3584C57.5117 44.2102 57.2361 44.1361 56.9338 44.1361C56.6315 44.1361 56.3559 44.2072 56.1069 44.3495C55.858 44.4917 55.6594 44.6992 55.5112 44.9719C55.363 45.2445 55.2889 45.5646 55.2889 45.9321C55.2889 46.3055 55.363 46.6316 55.5112 46.9102C55.6594 47.1828 55.858 47.3932 56.1069 47.5414C56.3559 47.6837 56.6315 47.7548 56.9338 47.7548C57.2361 47.7548 57.5117 47.6837 57.7607 47.5414C58.0156 47.3932 58.2171 47.1828 58.3653 46.9102C58.5135 46.6316 58.5876 46.3085 58.5876 45.941ZM60.4706 45.941C60.4706 45.4372 60.5714 44.9985 60.7729 44.6251C60.9744 44.2457 61.253 43.9523 61.6087 43.7449C61.9703 43.5374 62.3822 43.4337 62.8446 43.4337C63.4432 43.4337 63.9352 43.5789 64.3205 43.8693C64.7117 44.1598 64.9696 44.5629 65.0941 45.0786H64.2227C64.1397 44.7822 63.9767 44.548 63.7337 44.3761C63.4966 44.2042 63.2002 44.1183 62.8446 44.1183C62.3822 44.1183 62.0088 44.2783 61.7243 44.5984C61.4397 44.9126 61.2975 45.3601 61.2975 45.941C61.2975 46.5278 61.4397 46.9813 61.7243 47.3014C62.0088 47.6215 62.3822 47.7815 62.8446 47.7815C63.2002 47.7815 63.4966 47.6985 63.7337 47.5325C63.9708 47.3666 64.1338 47.1295 64.2227 46.8212H65.0941C64.9637 47.3192 64.7028 47.7193 64.3116 48.0216C63.9204 48.3179 63.4314 48.4661 62.8446 48.4661C62.3822 48.4661 61.9703 48.3624 61.6087 48.1549C61.253 47.9475 60.9744 47.6541 60.7729 47.2747C60.5714 46.8953 60.4706 46.4508 60.4706 45.941ZM68.5921 43.4248C68.9596 43.4248 69.2915 43.5048 69.5879 43.6648C69.8843 43.819 70.1155 44.0531 70.2814 44.3672C70.4533 44.6814 70.5393 45.0637 70.5393 45.5142V48.3861H69.7391V45.6298C69.7391 45.1438 69.6175 44.7733 69.3745 44.5184C69.1315 44.2576 68.7995 44.1272 68.3787 44.1272C67.9519 44.1272 67.6111 44.2606 67.3562 44.5273C67.1072 44.794 66.9828 45.1823 66.9828 45.692V48.3861H66.1737L66.1737 41.8066H66.9828L66.9828 44.2072C67.1428 43.9582 67.3621 43.7656 67.6407 43.6293C67.9252 43.4929 68.2424 43.4248 68.5921 43.4248ZM72.2788 42.7224C72.1247 42.7224 71.9943 42.669 71.8876 42.5623C71.7809 42.4556 71.7276 42.3252 71.7276 42.1711C71.7276 42.017 71.7809 41.8866 71.8876 41.7799C71.9943 41.6732 72.1247 41.6198 72.2788 41.6198C72.427 41.6198 72.5515 41.6732 72.6523 41.7799C72.759 41.8866 72.8123 42.017 72.8123 42.1711C72.8123 42.3252 72.759 42.4556 72.6523 42.5623C72.5515 42.669 72.427 42.7224 72.2788 42.7224ZM72.6701 43.5137V48.3861L71.8609 48.3861V43.5137L72.6701 43.5137ZM78.4947 45.7632C78.4947 45.9173 78.4858 46.0803 78.468 46.2522L74.5736 46.2522C74.6033 46.7323 74.7663 47.1087 75.0626 47.3814C75.3649 47.6481 75.7295 47.7815 76.1563 47.7815C76.506 47.7815 76.7964 47.7015 77.0276 47.5414C77.2647 47.3755 77.4307 47.1561 77.5255 46.8835H78.3969C78.2665 47.3518 78.0057 47.7341 77.6144 48.0305C77.2232 48.3209 76.7372 48.4661 76.1563 48.4661C75.6939 48.4661 75.279 48.3624 74.9115 48.1549C74.5499 47.9475 74.2654 47.6541 74.0579 47.2747C73.8505 46.8894 73.7467 46.4448 73.7467 45.941C73.7467 45.4372 73.8475 44.9956 74.049 44.6162C74.2506 44.2368 74.5321 43.9464 74.8937 43.7449C75.2612 43.5374 75.6821 43.4337 76.1563 43.4337C76.6186 43.4337 77.0276 43.5344 77.3833 43.736C77.7389 43.9375 78.0116 44.2161 78.2013 44.5717C78.3969 44.9215 78.4947 45.3186 78.4947 45.7632ZM77.6589 45.5942C77.6589 45.286 77.5907 45.0222 77.4544 44.8029C77.3181 44.5777 77.1314 44.4087 76.8943 44.2961C76.6631 44.1776 76.4052 44.1183 76.1207 44.1183C75.7117 44.1183 75.362 44.2487 75.0715 44.5095C74.787 44.7703 74.624 45.1319 74.5825 45.5942L77.6589 45.5942ZM81.3765 47.6392L82.888 43.5137H83.7505L81.8388 48.3861H80.8964L78.9847 43.5137H79.8561L81.3765 47.6392ZM88.9923 45.7632C88.9923 45.9173 88.9834 46.0803 88.9656 46.2522L85.0712 46.2522C85.1009 46.7323 85.2639 47.1087 85.5603 47.3814C85.8626 47.6481 86.2271 47.7815 86.6539 47.7815C87.0036 47.7815 87.2941 47.7015 87.5252 47.5414C87.7623 47.3755 87.9283 47.1561 88.0232 46.8835L88.8945 46.8835C88.7641 47.3518 88.5033 47.7341 88.1121 48.0305C87.7208 48.3209 87.2348 48.4661 86.6539 48.4661C86.1915 48.4661 85.7766 48.3624 85.4091 48.1549C85.0475 47.9475 84.763 47.6541 84.5556 47.2747C84.3481 46.8894 84.2444 46.4448 84.2444 45.941C84.2444 45.4372 84.3451 44.9956 84.5467 44.6162C84.7482 44.2368 85.0298 43.9464 85.3913 43.7449C85.7588 43.5374 86.1797 43.4337 86.6539 43.4337C87.1162 43.4337 87.5252 43.5344 87.8809 43.736C88.2365 43.9375 88.5092 44.2161 88.6989 44.5717C88.8945 44.9215 88.9923 45.3186 88.9923 45.7632ZM88.1565 45.5942C88.1565 45.286 88.0884 45.0222 87.952 44.8029C87.8157 44.5777 87.629 44.4087 87.3919 44.2961C87.1607 44.1776 86.9028 44.1183 86.6183 44.1183C86.2093 44.1183 85.8596 44.2487 85.5692 44.5095C85.2846 44.7703 85.1216 45.1319 85.0801 45.5942L88.1565 45.5942ZM95.9196 43.4248C96.299 43.4248 96.6369 43.5048 96.9333 43.6648C97.2296 43.819 97.4638 44.0531 97.6357 44.3672C97.8076 44.6814 97.8935 45.0637 97.8935 45.5142V48.3861H97.0933V45.6298C97.0933 45.1438 96.9718 44.7733 96.7288 44.5184C96.4917 44.2576 96.1686 44.1272 95.7596 44.1272C95.3388 44.1272 95.0038 44.2635 94.7549 44.5362C94.5059 44.8029 94.3815 45.1912 94.3815 45.7009V48.3861L93.5812 48.3861V45.6298C93.5812 45.1438 93.4597 44.7733 93.2167 44.5184C92.9796 44.2576 92.6565 44.1272 92.2475 44.1272C91.8267 44.1272 91.4918 44.2635 91.2428 44.5362C90.9939 44.8029 90.8694 45.1912 90.8694 45.7009V48.3861H90.0603V43.5137H90.8694V44.2161C91.0294 43.9612 91.2428 43.7656 91.5096 43.6293C91.7822 43.4929 92.0816 43.4248 92.4076 43.4248C92.8166 43.4248 93.1782 43.5166 93.4923 43.7004C93.8065 43.8842 94.0406 44.1539 94.1947 44.5095C94.3311 44.1657 94.5563 43.899 94.8705 43.7093C95.1846 43.5196 95.5344 43.4248 95.9196 43.4248ZM103.666 45.7632C103.666 45.9173 103.657 46.0803 103.64 46.2522L99.7453 46.2522C99.775 46.7323 99.938 47.1087 100.234 47.3814C100.537 47.6481 100.901 47.7815 101.328 47.7815C101.678 47.7815 101.968 47.7015 102.199 47.5414C102.436 47.3755 102.602 47.1561 102.697 46.8835H103.569C103.438 47.3518 103.177 47.7341 102.786 48.0305C102.395 48.3209 101.909 48.4661 101.328 48.4661C100.866 48.4661 100.451 48.3624 100.083 48.1549C99.7216 47.9475 99.4371 47.6541 99.2296 47.2747C99.0222 46.8894 98.9184 46.4448 98.9184 45.941C98.9184 45.4372 99.0192 44.9956 99.2207 44.6162C99.4223 44.2368 99.7038 43.9464 100.065 43.7449C100.433 43.5374 100.854 43.4337 101.328 43.4337C101.79 43.4337 102.199 43.5344 102.555 43.736C102.911 43.9375 103.183 44.2161 103.373 44.5717C103.569 44.9215 103.666 45.3186 103.666 45.7632ZM102.831 45.5942C102.831 45.286 102.762 45.0222 102.626 44.8029C102.49 44.5777 102.303 44.4087 102.066 44.2961C101.835 44.1776 101.577 44.1183 101.292 44.1183C100.883 44.1183 100.534 44.2487 100.243 44.5095C99.9587 44.7703 99.7957 45.1319 99.7542 45.5942L102.831 45.5942ZM107.108 43.4248C107.701 43.4248 108.181 43.6056 108.549 43.9671C108.916 44.3228 109.1 44.8385 109.1 45.5142V48.3861H108.3V45.6298C108.3 45.1438 108.178 44.7733 107.935 44.5184C107.692 44.2576 107.36 44.1272 106.939 44.1272C106.513 44.1272 106.172 44.2606 105.917 44.5273C105.668 44.794 105.543 45.1823 105.543 45.692V48.3861L104.734 48.3861V43.5137L105.543 43.5137V44.2072C105.704 43.9582 105.92 43.7656 106.193 43.6293C106.471 43.4929 106.776 43.4248 107.108 43.4248ZM111.409 44.1805V47.0524C111.409 47.2895 111.459 47.4585 111.56 47.5592C111.661 47.6541 111.835 47.7015 112.084 47.7015H112.68V48.3861H111.951C111.5 48.3861 111.163 48.2824 110.937 48.0749C110.712 47.8675 110.6 47.5266 110.6 47.0524V44.1805L109.968 44.1805V43.5137L110.6 43.5137L110.6 42.2867H111.409L111.409 43.5137H112.68V44.1805H111.409Z" fill="white"/>
</svg>
