<svg width="128" height="52" viewBox="0 0 128 52" fill="none" xmlns="http://www.w3.org/2000/svg">
<path d="M21.8239 12.7228L21.8239 35.1787L16.3539 35.1787L16.3539 12.7228L21.8239 12.7228ZM45.8767 35.1787L40.4067 35.1787L31.258 21.3277L31.258 35.1787L25.788 35.1787L25.788 12.7228L31.258 12.7228L40.4067 26.6378L40.4067 12.7228L45.8767 12.7228L45.8767 35.1787ZM65.996 12.7228V17.1052L60.0461 17.1052L60.0461 35.1787L54.5761 35.1787L54.5761 17.1052L48.6262 17.1052L48.6262 12.7228L65.996 12.7228ZM74.2113 17.1052L74.2113 21.6476L81.5366 21.6476V25.8701L74.2113 25.8701L74.2113 30.7963L82.4963 30.7963V35.1787L68.7413 35.1787L68.7413 12.7228L82.4963 12.7228V17.1052L74.2113 17.1052ZM106.136 35.1787L100.666 35.1787L91.5175 21.3277L91.5175 35.1787L86.0475 35.1787L86.0475 12.7228L91.5175 12.7228L100.666 26.6378L100.666 12.7228L106.136 12.7228L106.136 35.1787ZM126.256 12.7228V17.1052L120.306 17.1052L120.306 35.1787L114.836 35.1787L114.836 17.1052L108.886 17.1052V12.7228L126.256 12.7228Z" fill="white"/>
<path d="M15.6336 44.4837C15.7759 44.2051 15.9774 43.9888 16.2382 43.8347C16.5049 43.6805 16.828 43.6035 17.2074 43.6035L17.2074 44.4393H16.994C16.0871 44.4393 15.6336 44.9312 15.6336 45.9152L15.6336 48.5648L14.8245 48.5648L14.8245 43.6924L15.6336 43.6924L15.6336 44.4837ZM22.587 45.9419C22.587 46.096 22.5781 46.259 22.5603 46.4309L18.6659 46.4309C18.6956 46.911 18.8586 47.2874 19.155 47.5601C19.4573 47.8268 19.8218 47.9602 20.2486 47.9602C20.5983 47.9602 20.8888 47.8802 21.1199 47.7201C21.357 47.5542 21.523 47.3349 21.6178 47.0622H22.4892C22.3588 47.5305 22.098 47.9128 21.7068 48.2092C21.3155 48.4996 20.8295 48.6448 20.2486 48.6448C19.7862 48.6448 19.3713 48.5411 19.0038 48.3336C18.6422 48.1262 18.3577 47.8328 18.1502 47.4534C17.9428 47.0681 17.8391 46.6236 17.8391 46.1197C17.8391 45.6159 17.9398 45.1743 18.1414 44.7949C18.3429 44.4156 18.6245 44.1251 18.986 43.9236C19.3535 43.7161 19.7744 43.6124 20.2486 43.6124C20.7109 43.6124 21.1199 43.7131 21.4756 43.9147C21.8312 44.1162 22.1039 44.3948 22.2936 44.7505C22.4892 45.1002 22.587 45.4973 22.587 45.9419ZM21.7512 45.773C21.7512 45.4647 21.6831 45.2009 21.5467 44.9816C21.4104 44.7564 21.2237 44.5875 20.9866 44.4748C20.7554 44.3563 20.4975 44.297 20.213 44.297C19.804 44.297 19.4543 44.4274 19.1639 44.6882C18.8793 44.949 18.7163 45.3106 18.6748 45.773L21.7512 45.773ZM29.5144 43.6035C29.8937 43.6035 30.2316 43.6835 30.528 43.8435C30.8243 43.9977 31.0585 44.2318 31.2304 44.546C31.4023 44.8601 31.4882 45.2424 31.4882 45.6929L31.4882 48.5648H30.688L30.688 45.8085C30.688 45.3225 30.5665 44.952 30.3235 44.6971C30.0864 44.4363 29.7633 44.3059 29.3543 44.3059C28.9335 44.3059 28.5985 44.4422 28.3496 44.7149C28.1006 44.9816 27.9762 45.3699 27.9762 45.8797L27.9762 48.5648H27.1759L27.1759 45.8085C27.1759 45.3225 27.0544 44.952 26.8114 44.6971C26.5743 44.4363 26.2512 44.3059 25.8423 44.3059C25.4214 44.3059 25.0865 44.4422 24.8375 44.7149C24.5886 44.9816 24.4641 45.3699 24.4641 45.8797L24.4641 48.5648H23.655L23.655 43.6924H24.4641L24.4641 44.3948C24.6241 44.1399 24.8375 43.9443 25.1043 43.808C25.3769 43.6716 25.6763 43.6035 26.0023 43.6035C26.4113 43.6035 26.7729 43.6954 27.087 43.8791C27.4012 44.0629 27.6353 44.3326 27.7894 44.6882C27.9258 44.3444 28.151 44.0777 28.4652 43.888C28.7793 43.6983 29.1291 43.6035 29.5144 43.6035ZM32.5131 46.1108C32.5131 45.6129 32.6139 45.1772 32.8154 44.8038C33.017 44.4244 33.2926 44.131 33.6423 43.9236C33.998 43.7161 34.3922 43.6124 34.8249 43.6124C35.2517 43.6124 35.6221 43.7043 35.9363 43.888C36.2504 44.0718 36.4846 44.3029 36.6387 44.5815V43.6924H37.4567L37.4567 48.5648L36.6387 48.5648V47.6579C36.4787 47.9424 36.2386 48.1795 35.9185 48.3692C35.6043 48.553 35.2368 48.6448 34.816 48.6448C34.3833 48.6448 33.9921 48.5381 33.6423 48.3248C33.2926 48.1114 33.017 47.812 32.8154 47.4267C32.6139 47.0414 32.5131 46.6028 32.5131 46.1108ZM36.6387 46.1197C36.6387 45.7522 36.5646 45.4321 36.4164 45.1595C36.2682 44.8868 36.0667 44.6793 35.8118 44.5371C35.5629 44.3889 35.2872 44.3148 34.9849 44.3148C34.6826 44.3148 34.407 44.3859 34.158 44.5282C33.9091 44.6704 33.7105 44.8779 33.5623 45.1506C33.4141 45.4232 33.34 45.7433 33.34 46.1108C33.34 46.4843 33.4141 46.8103 33.5623 47.0889C33.7105 47.3615 33.9091 47.572 34.158 47.7201C34.407 47.8624 34.6826 47.9335 34.9849 47.9335C35.2872 47.9335 35.5629 47.8624 35.8118 47.7201C36.0667 47.572 36.2682 47.3615 36.4164 47.0889C36.5646 46.8103 36.6387 46.4872 36.6387 46.1197ZM39.6331 44.4837C39.7754 44.2051 39.9769 43.9888 40.2377 43.8347C40.5045 43.6805 40.8275 43.6035 41.2069 43.6035V44.4393H40.9935C40.0866 44.4393 39.6331 44.9312 39.6331 45.9152V48.5648H38.824L38.824 43.6924H39.6331V44.4837ZM44.8616 48.5648L42.95 46.4131V48.5648H42.1409L42.1409 41.9853H42.95L42.95 45.853L44.826 43.6924H45.9552L43.6613 46.1197L45.9641 48.5648L44.8616 48.5648ZM46.4145 46.1108C46.4145 45.6129 46.5152 45.1772 46.7168 44.8038C46.9183 44.4244 47.1939 44.131 47.5437 43.9236C47.8993 43.7161 48.2935 43.6124 48.7262 43.6124C49.153 43.6124 49.5234 43.7043 49.8376 43.888C50.1518 44.0718 50.3859 44.3029 50.54 44.5815V43.6924H51.358L51.358 48.5648H50.54V47.6579C50.38 47.9424 50.1399 48.1795 49.8198 48.3692C49.5057 48.553 49.1382 48.6448 48.7173 48.6448C48.2846 48.6448 47.8934 48.5381 47.5437 48.3248C47.1939 48.1114 46.9183 47.812 46.7168 47.4267C46.5152 47.0414 46.4145 46.6028 46.4145 46.1108ZM50.54 46.1197C50.54 45.7522 50.4659 45.4321 50.3177 45.1595C50.1695 44.8868 49.968 44.6793 49.7131 44.5371C49.4642 44.3889 49.1885 44.3148 48.8862 44.3148C48.5839 44.3148 48.3083 44.3859 48.0593 44.5282C47.8104 44.6704 47.6118 44.8779 47.4636 45.1506C47.3154 45.4232 47.2413 45.7433 47.2413 46.1108C47.2413 46.4843 47.3154 46.8103 47.4636 47.0889C47.6118 47.3615 47.8104 47.572 48.0593 47.7201C48.3083 47.8624 48.5839 47.9335 48.8862 47.9335C49.1885 47.9335 49.4642 47.8624 49.7131 47.7201C49.968 47.572 50.1695 47.3615 50.3177 47.0889C50.4659 46.8103 50.54 46.4872 50.54 46.1197ZM53.5344 44.5993C53.7004 44.3089 53.9434 44.0718 54.2635 43.888C54.5836 43.7043 54.9481 43.6124 55.3571 43.6124C55.7958 43.6124 56.19 43.7161 56.5397 43.9236C56.8894 44.131 57.165 44.4244 57.3666 44.8038C57.5681 45.1772 57.6689 45.6129 57.6689 46.1108C57.6689 46.6028 57.5681 47.0414 57.3666 47.4267C57.165 47.812 56.8864 48.1114 56.5308 48.3248C56.1811 48.5381 55.7899 48.6448 55.3571 48.6448C54.9363 48.6448 54.5658 48.553 54.2457 48.3692C53.9316 48.1855 53.6945 47.9513 53.5344 47.6668V48.5648L52.7253 48.5648L52.7253 41.9853L53.5344 41.9853V44.5993ZM56.842 46.1108C56.842 45.7433 56.7679 45.4232 56.6197 45.1506C56.4715 44.8779 56.27 44.6704 56.0151 44.5282C55.7661 44.3859 55.4905 44.3148 55.1882 44.3148C54.8918 44.3148 54.6162 44.3889 54.3613 44.5371C54.1124 44.6793 53.9108 44.8898 53.7567 45.1683C53.6085 45.441 53.5344 45.7581 53.5344 46.1197C53.5344 46.4872 53.6085 46.8103 53.7567 47.0889C53.9108 47.3615 54.1124 47.572 54.3613 47.7201C54.6162 47.8624 54.8918 47.9335 55.1882 47.9335C55.4905 47.9335 55.7661 47.8624 56.0151 47.7201C56.27 47.572 56.4715 47.3615 56.6197 47.0889C56.7679 46.8103 56.842 46.4843 56.842 46.1108ZM59.543 41.9853L59.543 48.5648H58.7339L58.7339 41.9853H59.543ZM65.3676 45.9419C65.3676 46.096 65.3587 46.259 65.3409 46.4309L61.4466 46.4309C61.4762 46.911 61.6392 47.2874 61.9356 47.5601C62.2379 47.8268 62.6024 47.9602 63.0292 47.9602C63.3789 47.9602 63.6694 47.8802 63.9006 47.7201C64.1377 47.5542 64.3036 47.3349 64.3985 47.0622L65.2698 47.0622C65.1394 47.5305 64.8786 47.9128 64.4874 48.2092C64.0962 48.4996 63.6101 48.6448 63.0292 48.6448C62.5669 48.6448 62.1519 48.5411 61.7844 48.3336C61.4229 48.1262 61.1383 47.8328 60.9309 47.4534C60.7234 47.0681 60.6197 46.6236 60.6197 46.1197C60.6197 45.6159 60.7204 45.1743 60.922 44.7949C61.1235 44.4156 61.4051 44.1251 61.7667 43.9236C62.1342 43.7161 62.555 43.6124 63.0292 43.6124C63.4916 43.6124 63.9006 43.7131 64.2562 43.9147C64.6119 44.1162 64.8845 44.3948 65.0742 44.7505C65.2698 45.1002 65.3676 45.4973 65.3676 45.9419ZM64.5318 45.773C64.5318 45.4647 64.4637 45.2009 64.3273 44.9816C64.191 44.7564 64.0043 44.5875 63.7672 44.4748C63.536 44.3563 63.2782 44.297 62.9936 44.297C62.5846 44.297 62.2349 44.4274 61.9445 44.6882C61.66 44.949 61.4969 45.3106 61.4555 45.773H64.5318ZM68.5037 46.1108C68.5037 45.6129 68.6045 45.1772 68.806 44.8038C69.0076 44.4244 69.2832 44.131 69.6329 43.9236C69.9886 43.7161 70.3828 43.6124 70.8155 43.6124C71.2423 43.6124 71.6127 43.7043 71.9269 43.888C72.241 44.0718 72.4752 44.3029 72.6293 44.5815V43.6924L73.4473 43.6924V48.5648L72.6293 48.5648V47.6579C72.4693 47.9424 72.2292 48.1795 71.9091 48.3692C71.5949 48.553 71.2274 48.6448 70.8066 48.6448C70.3739 48.6448 69.9827 48.5381 69.6329 48.3248C69.2832 48.1114 69.0076 47.812 68.806 47.4267C68.6045 47.0414 68.5037 46.6028 68.5037 46.1108ZM72.6293 46.1197C72.6293 45.7522 72.5552 45.4321 72.407 45.1595C72.2588 44.8868 72.0573 44.6793 71.8024 44.5371C71.5534 44.3889 71.2778 44.3148 70.9755 44.3148C70.6732 44.3148 70.3976 44.3859 70.1486 44.5282C69.8997 44.6704 69.7011 44.8779 69.5529 45.1506C69.4047 45.4232 69.3306 45.7433 69.3306 46.1108C69.3306 46.4843 69.4047 46.8103 69.5529 47.0889C69.7011 47.3615 69.8997 47.572 70.1486 47.7201C70.3976 47.8624 70.6732 47.9335 70.9755 47.9335C71.2778 47.9335 71.5534 47.8624 71.8024 47.7201C72.0573 47.572 72.2588 47.3615 72.407 47.0889C72.5552 46.8103 72.6293 46.4872 72.6293 46.1197ZM74.5123 46.1197C74.5123 45.6159 74.6131 45.1772 74.8146 44.8038C75.0161 44.4244 75.2947 44.131 75.6504 43.9236C76.012 43.7161 76.4239 43.6124 76.8863 43.6124C77.485 43.6124 77.9769 43.7576 78.3622 44.048C78.7535 44.3385 79.0113 44.7416 79.1358 45.2573H78.2644C78.1814 44.9609 78.0184 44.7267 77.7754 44.5548C77.5383 44.383 77.2419 44.297 76.8863 44.297C76.4239 44.297 76.0505 44.457 75.766 44.7771C75.4815 45.0913 75.3392 45.5388 75.3392 46.1197C75.3392 46.7065 75.4815 47.16 75.766 47.4801C76.0505 47.8002 76.4239 47.9602 76.8863 47.9602C77.2419 47.9602 77.5383 47.8772 77.7754 47.7113C78.0125 47.5453 78.1755 47.3082 78.2644 47H79.1358C79.0054 47.4979 78.7446 47.898 78.3533 48.2003C77.9621 48.4967 77.4731 48.6448 76.8863 48.6448C76.4239 48.6448 76.012 48.5411 75.6504 48.3336C75.2947 48.1262 75.0161 47.8328 74.8146 47.4534C74.6131 47.074 74.5123 46.6295 74.5123 46.1197ZM82.6338 43.6035C83.0013 43.6035 83.3332 43.6835 83.6296 43.8435C83.926 43.9977 84.1572 44.2318 84.3231 44.546C84.495 44.8601 84.581 45.2424 84.581 45.6929V48.5648H83.7808V45.8085C83.7808 45.3225 83.6593 44.952 83.4162 44.6971C83.1732 44.4363 82.8413 44.3059 82.4204 44.3059C81.9936 44.3059 81.6528 44.4393 81.3979 44.706C81.149 44.9727 81.0245 45.361 81.0245 45.8708V48.5648H80.2154L80.2154 41.9853H81.0245L81.0245 44.3859C81.1845 44.137 81.4038 43.9443 81.6824 43.808C81.967 43.6716 82.2841 43.6035 82.6338 43.6035ZM86.3206 42.9011C86.1664 42.9011 86.036 42.8477 85.9293 42.741C85.8226 42.6343 85.7693 42.5039 85.7693 42.3498C85.7693 42.1957 85.8226 42.0653 85.9293 41.9586C86.036 41.8519 86.1664 41.7986 86.3206 41.7986C86.4687 41.7986 86.5932 41.8519 86.694 41.9586C86.8007 42.0653 86.854 42.1957 86.854 42.3498C86.854 42.5039 86.8007 42.6343 86.694 42.741C86.5932 42.8477 86.4687 42.9011 86.3206 42.9011ZM86.7118 43.6924V48.5648L85.9027 48.5648V43.6924L86.7118 43.6924ZM92.5364 45.9419C92.5364 46.096 92.5275 46.259 92.5097 46.4309L88.6153 46.4309C88.645 46.911 88.808 47.2874 89.1044 47.5601C89.4067 47.8268 89.7712 47.9602 90.198 47.9602C90.5477 47.9602 90.8382 47.8802 91.0693 47.7201C91.3064 47.5542 91.4724 47.3349 91.5672 47.0622H92.4386C92.3082 47.5305 92.0474 47.9128 91.6562 48.2092C91.2649 48.4996 90.7789 48.6448 90.198 48.6448C89.7356 48.6448 89.3207 48.5411 88.9532 48.3336C88.5916 48.1262 88.3071 47.8328 88.0996 47.4534C87.8922 47.0681 87.7885 46.6236 87.7885 46.1197C87.7885 45.6159 87.8892 45.1743 88.0908 44.7949C88.2923 44.4156 88.5738 44.1251 88.9354 43.9236C89.3029 43.7161 89.7238 43.6124 90.198 43.6124C90.6603 43.6124 91.0693 43.7131 91.425 43.9147C91.7806 44.1162 92.0533 44.3948 92.243 44.7505C92.4386 45.1002 92.5364 45.4973 92.5364 45.9419ZM91.7006 45.773C91.7006 45.4647 91.6325 45.2009 91.4961 44.9816C91.3598 44.7564 91.1731 44.5875 90.936 44.4748C90.7048 44.3563 90.4469 44.297 90.1624 44.297C89.7534 44.297 89.4037 44.4274 89.1133 44.6882C88.8287 44.949 88.6657 45.3106 88.6242 45.773L91.7006 45.773ZM95.4182 47.818L96.9297 43.6924H97.7922L95.8806 48.5648H94.9381L93.0265 43.6924H93.8978L95.4182 47.818ZM103.034 45.9419C103.034 46.096 103.025 46.259 103.007 46.4309L99.113 46.4309C99.1426 46.911 99.3056 47.2874 99.602 47.5601C99.9043 47.8268 100.269 47.9602 100.696 47.9602C101.045 47.9602 101.336 47.8802 101.567 47.7201C101.804 47.5542 101.97 47.3349 102.065 47.0622H102.936C102.806 47.5305 102.545 47.9128 102.154 48.2092C101.763 48.4996 101.277 48.6448 100.696 48.6448C100.233 48.6448 99.8183 48.5411 99.4508 48.3336C99.0893 48.1262 98.8047 47.8328 98.5973 47.4534C98.3898 47.0681 98.2861 46.6236 98.2861 46.1197C98.2861 45.6159 98.3868 45.1743 98.5884 44.7949C98.7899 44.4156 99.0715 44.1251 99.433 43.9236C99.8006 43.7161 100.221 43.6124 100.696 43.6124C101.158 43.6124 101.567 43.7131 101.923 43.9147C102.278 44.1162 102.551 44.3948 102.741 44.7505C102.936 45.1002 103.034 45.4973 103.034 45.9419ZM102.198 45.773C102.198 45.4647 102.13 45.2009 101.994 44.9816C101.857 44.7564 101.671 44.5875 101.434 44.4748C101.202 44.3563 100.945 44.297 100.66 44.297C100.251 44.297 99.9013 44.4274 99.6109 44.6882C99.3264 44.949 99.1633 45.3106 99.1219 45.773H102.198ZM109.961 43.6035C110.341 43.6035 110.679 43.6835 110.975 43.8435C111.271 43.9977 111.505 44.2318 111.677 44.546C111.849 44.8601 111.935 45.2424 111.935 45.6929V48.5648L111.135 48.5648V45.8085C111.135 45.3225 111.014 44.952 110.77 44.6971C110.533 44.4363 110.21 44.3059 109.801 44.3059C109.38 44.3059 109.046 44.4422 108.797 44.7149C108.548 44.9816 108.423 45.3699 108.423 45.8797V48.5648H107.623V45.8085C107.623 45.3225 107.501 44.952 107.258 44.6971C107.021 44.4363 106.698 44.3059 106.289 44.3059C105.868 44.3059 105.534 44.4422 105.285 44.7149C105.036 44.9816 104.911 45.3699 104.911 45.8797V48.5648H104.102V43.6924H104.911V44.3948C105.071 44.1399 105.285 43.9443 105.551 43.808C105.824 43.6716 106.123 43.6035 106.449 43.6035C106.858 43.6035 107.22 43.6954 107.534 43.8791C107.848 44.0629 108.082 44.3326 108.236 44.6882C108.373 44.3444 108.598 44.0777 108.912 43.888C109.226 43.6983 109.576 43.6035 109.961 43.6035ZM117.708 45.9419C117.708 46.096 117.699 46.259 117.681 46.4309L113.787 46.4309C113.817 46.911 113.98 47.2874 114.276 47.5601C114.578 47.8268 114.943 47.9602 115.37 47.9602C115.719 47.9602 116.01 47.8802 116.241 47.7201C116.478 47.5542 116.644 47.3349 116.739 47.0622H117.61C117.48 47.5305 117.219 47.9128 116.828 48.2092C116.437 48.4996 115.951 48.6448 115.37 48.6448C114.907 48.6448 114.492 48.5411 114.125 48.3336C113.763 48.1262 113.479 47.8328 113.271 47.4534C113.064 47.0681 112.96 46.6236 112.96 46.1197C112.96 45.6159 113.061 45.1743 113.262 44.7949C113.464 44.4156 113.746 44.1251 114.107 43.9236C114.475 43.7161 114.895 43.6124 115.37 43.6124C115.832 43.6124 116.241 43.7131 116.597 43.9147C116.952 44.1162 117.225 44.3948 117.415 44.7505C117.61 45.1002 117.708 45.4973 117.708 45.9419ZM116.872 45.773C116.872 45.4647 116.804 45.2009 116.668 44.9816C116.531 44.7564 116.345 44.5875 116.108 44.4748C115.877 44.3563 115.619 44.297 115.334 44.297C114.925 44.297 114.575 44.4274 114.285 44.6882C114 44.949 113.837 45.3106 113.796 45.773L116.872 45.773ZM121.15 43.6035C121.743 43.6035 122.223 43.7843 122.59 44.1459C122.958 44.5015 123.142 45.0172 123.142 45.6929V48.5648L122.342 48.5648V45.8085C122.342 45.3225 122.22 44.952 121.977 44.6971C121.734 44.4363 121.402 44.3059 120.981 44.3059C120.554 44.3059 120.214 44.4393 119.959 44.706C119.71 44.9727 119.585 45.361 119.585 45.8708V48.5648L118.776 48.5648V43.6924L119.585 43.6924V44.3859C119.745 44.137 119.962 43.9443 120.234 43.808C120.513 43.6716 120.818 43.6035 121.15 43.6035ZM125.45 44.3592V47.2311C125.45 47.4682 125.501 47.6372 125.601 47.7379C125.702 47.8328 125.877 47.8802 126.126 47.8802H126.722V48.5648H125.993C125.542 48.5648 125.204 48.4611 124.979 48.2536C124.754 48.0462 124.641 47.7053 124.641 47.2311V44.3592H124.01V43.6924H124.641L124.641 42.4654H125.45L125.45 43.6924H126.722V44.3592H125.45Z" fill="white"/>
</svg>
